# Made in Blockbench 5.0.7
mtllib smelter.mtl

o 1
v 0.7968749999999999 2 0.7968749999999999
v 0.7968749999999999 2 -0.7968749999999999
v -0.7968749999999999 2 0.7968749999999999
v -0.7968749999999999 2 -0.7968749999999999
v 0.7968749999999999 1.375 0.7968749999999999
v 0.7968749999999999 1.375 -0.7968749999999999
v -0.7968749999999999 1.375 0.7968749999999999
v -0.7968749999999999 1.375 -0.7968749999999999
v -1.0625 1.53125 0.7968749999999999
v -1.0625 1.84375 0.7968749999999999
v -1.0625 1.53125 -0.7968749999999999
v -1.0625 1.84375 -0.7968749999999999
v 1.0625 1.53125 0.7968749999999999
v 1.0625 1.84375 0.7968749999999999
v 1.0625 1.53125 -0.7968749999999999
v 1.0625 1.84375 -0.7968749999999999
v 0.7968749999999999 1.53125 -1.0625
v 0.7968749999999999 1.84375 -1.0625
v -0.7968749999999999 1.53125 -1.0625
v -0.7968749999999999 1.84375 -1.0625
v 0.7968749999999999 1.53125 1.0625
v 0.7968749999999999 1.84375 1.0625
v -0.7968749999999999 1.53125 1.0625
v -0.7968749999999999 1.84375 1.0625
vt 0.1015625 0.6875
vt 0 0.6875
vt 0 0.66796875
vt 0.1015625 0.66796875
vt 0.4453125 0.6171875
vt 0.4453125 0.63671875
vt 0.34375 0.63671875
vt 0.34375 0.6171875
vt 0.26953125 0.8984375
vt 0.26953125 1
vt 0.16796875 1
vt 0.16796875 0.8984375
vt 0.16796875 0.79296875
vt 0.26953125 0.79296875
vt 0.26953125 0.89453125
vt 0.16796875 0.89453125
vt 0.30078125 0.6015625
vt 0.30078125 0.62109375
vt 0.19921875 0.62109375
vt 0.19921875 0.6015625
vt 0.40625 0.61328125
vt 0.3046875 0.61328125
vt 0.3046875 0.59375
vt 0.40625 0.59375
vt 0.51953125 1
vt 0.41796875 1
vt 0.41796875 0.98046875
vt 0.51953125 0.98046875
vt 0.51953125 0.95703125
vt 0.51953125 0.9765625
vt 0.41796875 0.9765625
vt 0.41796875 0.95703125
vt 0.30078125 0.578125
vt 0.30078125 0.59765625
vt 0.19921875 0.59765625
vt 0.19921875 0.578125
vt 0.40625 0.58984375
vt 0.3046875 0.58984375
vt 0.3046875 0.5703125
vt 0.40625 0.5703125
vt 0.41796875 0.953125
vt 0.41796875 0.93359375
vt 0.51953125 0.93359375
vt 0.51953125 0.953125
vt 0.41796875 0.91015625
vt 0.51953125 0.91015625
vt 0.51953125 0.9296875
vt 0.41796875 0.9296875
vt 0.41015625 0.59375
vt 0.51171875 0.59375
vt 0.51171875 0.61328125
vt 0.41015625 0.61328125
vt 0.41015625 0.58984375
vt 0.41015625 0.5703125
vt 0.51171875 0.5703125
vt 0.51171875 0.58984375
vt 0.19921875 0.65234375
vt 0.22265625 0.65234375
vt 0.22265625 0.671875
vt 0.19921875 0.671875
vt 0.2265625 0.671875
vt 0.2265625 0.65234375
vt 0.25 0.65234375
vt 0.25 0.671875
vt 0.25390625 0.671875
vt 0.25390625 0.65234375
vt 0.27734375 0.65234375
vt 0.27734375 0.671875
vt 0.41796875 0.79296875
vt 0.44140625 0.79296875
vt 0.44140625 0.8125
vt 0.41796875 0.8125
vt 0.1210734375 0.671875
vt 0.1328125 0.6871453125
vt 0.109334375 0.6871453125
vt 0.0703328125 0.55859375
vt 0.082071875 0.5738640625
vt 0.05859375 0.5738640625
vt 0.1015828125 0.55859375
vt 0.113321875 0.5738640625
vt 0.08984375 0.5738640625
vt 0.2148234375 0.55859375
vt 0.2265625 0.5738640625
vt 0.203084375 0.5738640625
vt 0.5921875000000001 0.739453125
vt 0.5804687500000001 0.723828125
vt 0.6039062500000001 0.723828125
vt 0.5921875000000001 0.739453125
vt 0.5804687500000001 0.723828125
vt 0.6039062500000001 0.723828125
vt 0.5921875000000001 0.739453125
vt 0.5804687500000001 0.723828125
vt 0.6039062500000001 0.723828125
vt 0.5921875000000001 0.739453125
vt 0.5804687500000001 0.723828125
vt 0.6039062500000001 0.723828125
vn 1 0 0
vn -1 0 0
vn 0 1 0
vn 0 -1 0
vn 0 0 1
vn 0 0 -1
vn 0.5070201265633937 0.8619342151577697 0
vn -0.5070201265633937 0.8619342151577697 0
vn 0 0.8619342151577697 0.5070201265633937
vn 0 0.8619342151577697 -0.5070201265633937
vn 0.5070201265633937 -0.8619342151577697 0
vn -0.5070201265633937 -0.8619342151577697 0
vn 0 -0.8619342151577697 0.5070201265633937
vn 0 -0.8619342151577697 -0.5070201265633937
vn 0.7071067811865476 0 -0.7071067811865476
vn 0.7071067811865476 0 0.7071067811865476
vn -0.7071067811865476 0 -0.7071067811865476
vn -0.7071067811865476 0 0.7071067811865476
vn 0.45221563164613454 -0.768766573798429 0.45221563164613454
vn -0.45221563164613454 -0.768766573798429 0.45221563164613454
vn 0.45221563164613454 -0.768766573798429 -0.45221563164613454
vn -0.45221563164613454 -0.768766573798429 -0.45221563164613454
vn 0.45221563164613454 0.768766573798429 0.45221563164613454
vn -0.45221563164613454 0.768766573798429 0.45221563164613454
vn 0.45221563164613454 0.768766573798429 -0.45221563164613454
vn -0.45221563164613454 0.768766573798429 -0.45221563164613454
usemtl m_9e402754-afe8-f8df-0ba5-8986d37c471e
f 16/1/1 14/2/1 13/3/1 15/4/1
f 9/5/2 10/6/2 12/7/2 11/8/2
f 1/9/3 2/10/3 4/11/3 3/12/3
f 8/13/4 6/14/4 5/15/4 7/16/4
f 21/17/5 22/18/5 24/19/5 23/20/5
f 20/21/6 18/22/6 17/23/6 19/24/6
f 2/25/7 1/26/7 14/27/7 16/28/7
f 10/29/8 3/30/8 4/31/8 12/32/8
f 22/33/9 1/34/9 3/35/9 24/36/9
f 4/37/10 2/38/10 18/39/10 20/40/10
f 13/41/11 5/42/11 6/43/11 15/44/11
f 8/45/12 7/46/12 9/47/12 11/48/12
f 7/49/13 5/50/13 21/51/13 23/52/13
f 17/53/14 6/54/14 8/55/14 19/56/14
f 15/57/15 17/58/15 18/59/15 16/60/15
f 22/61/16 21/62/16 13/63/16 14/64/16
f 20/65/17 19/66/17 11/67/17 12/68/17
f 9/69/18 23/70/18 24/71/18 10/72/18
f 5/73/19 13/74/19 21/75/19
f 7/76/20 23/77/20 9/78/20
f 6/79/21 17/80/21 15/81/21
f 8/82/22 11/83/22 19/84/22
f 1/85/23 22/86/23 14/87/23
f 3/88/24 10/89/24 24/90/24
f 2/91/25 16/92/25 18/93/25
f 4/94/26 20/95/26 12/96/26
o 2
v 1.125 1.625 1.125
v 1.125 1.625 -1.125
v -1.125 1.625 1.125
v -1.125 1.625 -1.125
v 1.5 0 1.125
v 1.125 0 -1.5
v -1.5 0 -1.125
v -1.5 0 1.125
v -1.5 1.0833333333333333 1.125
v -1.5 1.0833333333333333 -1.125
v 1.5 1.0833333333333333 1.125
v 1.5 0 -1.125
v 1.5 1.0833333333333333 -1.125
v 1.125 1.0833333333333333 -1.5
v -1.125 0 -1.5
v -1.125 1.0833333333333333 -1.5
v 1.125 1.0833333333333333 1.5
v -1.125 1.0833333333333333 1.5
v 1.125 0 1.5
v -1.125 0 1.5
vt 0.140625 0.69140625
vt 0.140625 0.83203125
vt 0 0.83203125
vt 0 0.69140625
vt 0.4296875 0.7421875
vt 0.2890625 0.7421875
vt 0.2890625 0.69921875
vt 0.4296875 0.69921875
vt 0.4296875 0.65234375
vt 0.4296875 0.6953125
vt 0.2890625 0.6953125
vt 0.2890625 0.65234375
vt 0.28515625 0.67578125
vt 0.28515625 0.71875
vt 0.14453125 0.71875
vt 0.14453125 0.67578125
vt 0.4296875 0.7890625
vt 0.2890625 0.7890625
vt 0.2890625 0.74609375
vt 0.4296875 0.74609375
vt 0.56640625 0.953125
vt 0.54296875 0.91015625
vt 0.58984375 0.91015625
vt 0.56640625 0.953125
vt 0.54296875 0.91015625
vt 0.58984375 0.91015625
vt 0.56640625 0.953125
vt 0.54296875 0.91015625
vt 0.58984375 0.91015625
vt 0.56640625 0.953125
vt 0.54296875 0.91015625
vt 0.58984375 0.91015625
vt 0.28515625 0.72265625
vt 0.28515625 0.7890625
vt 0.14453125 0.7890625
vt 0.14453125 0.72265625
vt 0.001120299079701459 0.6484375000000001
vt 0.16684845092029854 0.6484375
vt 0.140331946625803 0.6683248782208717
vt 0.19353743911043575 0.50390625
vt 0.19353743911043583 0.6696344018405971
vt 0.17365006088956417 0.6431178975461016
vt 0 1
vt 0 0.8359375
vt 0.1640625 0.8359375
vt 0.1640625 1
vt 0.36606720092029854 0.6448873782208716
vt 0.20033904907970146 0.6448873782208717
vt 0.226855553374197 0.625
vt 0.4140625 1
vt 0.2734375 1
vt 0.2734375 0.93359375
vt 0.4140625 0.93359375
vt 0.015625 0.64453125
vt 0.015625 0.578125
vt 0.046875 0.578125
vt 0.046875 0.64453125
vt 0.05078125 0.64453125
vt 0.05078125 0.578125
vt 0.08203125 0.578125
vt 0.08203125 0.64453125
vt 0.0859375 0.578125
vt 0.1171875 0.578125
vt 0.1171875 0.64453125
vt 0.0859375 0.64453125
vt 0.12109375 0.578125
vt 0.15234375 0.578125
vt 0.15234375 0.64453125
vt 0.12109375 0.64453125
vt 0.4140625 0.86328125
vt 0.4140625 0.9296875
vt 0.2734375 0.9296875
vt 0.2734375 0.86328125
vt 0.4140625 0.859375
vt 0.2734375 0.859375
vt 0.2734375 0.79296875
vt 0.4140625 0.79296875
vt 0.0017750608895642575 0.6422906518405971
vt 0.0017750608895641604 0.4765625
vt 0.02166243911043584 0.5030790042944955
vn 0 1 0
vn 0.8221921916437787 0.5692099788303082 0
vn -0.8221921916437787 0.5692099788303082 0
vn 0 0.5692099788303082 0.8221921916437787
vn 0 0.5692099788303082 -0.8221921916437787
vn 0.635091559369841 0.4396787718714283 0.635091559369841
vn -0.635091559369841 0.4396787718714283 0.635091559369841
vn 0.635091559369841 0.4396787718714283 -0.635091559369841
vn -0.635091559369841 0.4396787718714283 -0.635091559369841
vn -1 0 0
vn 0 -1 0
vn 0 -1 0
vn 0 -1 0
vn 0 -1 0
vn 0 0 -1
vn 0.7071067811865476 0 0.7071067811865476
vn -0.7071067811865476 0 -0.7071067811865476
vn -0.7071067811865476 0 0.7071067811865476
vn 0.7071067811865476 0 -0.7071067811865476
vn 0 0 1
vn 1 0 0
vn 0 -1 0
usemtl m_9e402754-afe8-f8df-0ba5-8986d37c471e
f 25/97/27 26/98/27 28/99/27 27/100/27
f 26/101/28 25/102/28 35/103/28 37/104/28
f 33/105/29 27/106/29 28/107/29 34/108/29
f 41/109/30 25/110/30 27/111/30 42/112/30
f 28/113/31 26/114/31 38/115/31 40/116/31
f 25/117/32 41/118/32 35/119/32
f 27/120/33 33/121/33 42/122/33
f 26/123/34 37/124/34 38/125/34
f 28/126/35 40/127/35 34/128/35
f 32/129/36 33/130/36 34/131/36 31/132/36
f 31/133/37 44/134/37 32/135/37
f 30/136/38 31/137/38 39/138/38
f 31/139/39 30/140/39 29/141/39 44/142/39
f 29/143/40 30/144/40 36/145/40
f 40/146/41 38/147/41 30/148/41 39/149/41
f 41/150/42 43/151/42 29/152/42 35/153/42
f 40/154/43 39/155/43 31/156/43 34/157/43
f 32/158/44 44/159/44 42/160/44 33/161/44
f 36/162/45 30/163/45 38/164/45 37/165/45
f 43/166/46 41/167/46 42/168/46 44/169/46
f 37/170/47 35/171/47 29/172/47 36/173/47
f 44/174/48 29/175/48 43/176/48